<?xml version="1.0" encoding="utf-8"?>
<!-- Generator: Adobe Illustrator 19.0.0, SVG Export Plug-In . SVG Version: 6.00 Build 0)  -->
<svg version="1.1" xmlns="http://www.w3.org/2000/svg" xmlns:xlink="http://www.w3.org/1999/xlink" x="0px" y="0px"
	 viewBox="202 -80.1 1000 1000" style="enable-background:new 202 -80.1 1000 1000;" xml:space="preserve">
<style type="text/css">
	.st0{fill:#5802BC;}
	.st1{fill:#6600CC;}
	.st2{fill:#848484;}
	.st3{fill:#C4C4C4;}
	.st4{fill:#7C7C7C;}
	.st5{fill:#672091;}
	.st6{fill:#7A22A7;}
</style>
<g id="Grafica">
	<g id="Capa_6">
		<g>
			<g transform="translate(0.000000,340.000000) scale(0.100000,-0.100000)">
				<path class="st0" d="M5339.7,368.5c-49-61.2-1824.2-4766.5-1824.2-4841.6c0-122.4,162.6-189.1,237.4-94.6
					c20.6,25,397.3,1001.1,836,2166.4c436,1168,802.4,2110.7,812.8,2099.6c7.7-11.1,190.9-864.9,407.7-1896.6
					C6057-3377.4,6217-4092.1,6242.8-4122.7c56.8-69.5,141.9-64,206.4,11.1c28.4,36.2,242.5,456.1,474.7,937.2l423.1,870.4
					l201.3-884.3c209-923.3,242.5-1012.3,366.4-1012.3c80,0,131.6,72.3,387,536.7c123.8,225.3,229.6,406,232.2,403.2
					c2.6-5.6,72.2-194.7,154.8-425.5c80-228,165.1-439.4,188.4-467.2c56.8-69.5,162.6-50.1,209,38.9c33.5,66.7,23.2,108.5-178,681.3
					c-118.7,333.7-227.1,625.7-240,645.2c-15.5,22.2-64.5,33.4-118.7,27.8c-87.7-8.3-98-22.2-340.6-464.4l-250.3-453.3l-209,926.1
					c-121.3,531.2-229.6,948.3-252.9,976.1c-56.8,69.5-141.9,64-206.4-11.1c-28.4-36.2-234.8-439.4-456.7-898.2
					c-224.5-458.9-415.4-842.6-425.7-853.8c-10.3-11.1-201.3,851-425.7,1916.1C5729.3-412.9,5561.6,335.2,5535.8,365.7
					C5481.6,429.7,5393.9,429.7,5339.7,368.5z"/>
			</g>
		</g>
		<g>
			<g transform="translate(0.000000,340.000000) scale(0.100000,-0.100000)">
				<path class="st1" d="M5344.7,269.9c-47.4-59.3-1763.6-4622.7-1763.6-4695.5c0-118.7,157.2-183.4,229.5-91.7
					c20,24.3,384.1,970.9,808.2,2101c421.6,1132.8,775.8,2047,785.8,2036.3c7.5-10.8,184.6-838.8,394.1-1839.4
					c239.5-1143.5,394.1-1836.7,419.1-1866.3c54.9-67.4,137.2-62,199.6,10.8c27.4,35.1,234.5,442.3,459,908.9l409.1,844.2
					l194.6-857.7c202.1-895.4,234.5-981.7,354.2-981.7c77.3,0,127.2,70.1,374.2,520.5c119.7,218.5,222,393.8,224.5,391.1
					c2.5-5.4,69.8-188.8,149.7-412.6c77.3-221.2,159.6-426.1,182.1-453.1c54.9-67.4,157.2-48.5,202.1,37.8
					c32.4,64.7,22.5,105.2-172.1,660.8c-114.7,323.6-219.5,606.8-232,625.7c-15,21.6-62.4,32.4-114.7,27
					c-84.8-8.1-94.8-21.6-329.3-450.4l-242-439.6l-202.1,898.1c-117.2,515.1-222,919.7-244.5,946.7c-54.9,67.4-137.2,62-199.6-10.8
					c-27.4-35.1-227-426.1-441.5-871.1c-217-445-401.6-817.2-411.6-828c-10-10.8-194.6,825.3-411.6,1858.3
					C5721.3-488,5559.2,237.5,5534.2,267.2C5481.9,329.2,5397,329.2,5344.7,269.9z"/>
			</g>
		</g>
	</g>
</g>
<g id="Logo">
	<g id="Luna">
		<g>
			<g>
				<path class="st2" d="M686.6,185.3c0,124.9,95.6,226.2,213.5,226.2c29.3,0,57.2-6.3,82.7-17.6c-31.3,73.8-110.7,126.4-204,126.4
					c-120.6,0-218.4-87.7-218.4-195.8c0-79.7,53.3-148.2,129.7-178.8C687.9,158.6,686.6,171.8,686.6,185.3L686.6,185.3z"/>
			</g>
		</g>
		<g>
			<g>
				<path class="st3" d="M685.9,191.3c0,121.6,93,220.1,207.8,220.1c28.5,0,55.7-6.1,80.4-17.1c-30.4,71.8-107.7,123-198.5,123
					c-117.3,0-212.5-85.3-212.5-190.5c0-77.6,51.9-144.3,126.2-174C687.2,165.3,685.9,178.1,685.9,191.3L685.9,191.3z"/>
			</g>
		</g>
	</g>
	<g id="Estrella">
		<g>
			<g>
				<g transform="translate(0.000000,511.000000) scale(0.100000,-0.100000)">
					<path class="st0" d="M9086.2,3445.4c-3.6-1.7-8.3-5-10.3-7.2c-2.2-2.4-34.1-64.3-71.2-137.7c-37.3-73.4-70.9-138.1-75-143.6
						c-9.1-12.2-27-24.3-42.2-28.9c-6-1.7-78.3-12.6-160.6-24.1c-96.2-13.5-152.2-22.2-157.3-24.5c-15.6-7.4-22.8-28.4-14.5-43.7
						c1.8-3.5,54-54.3,116-113.2c101.3-96.2,113.3-108.6,119.8-121c12.3-24.5,12.3-25.8-17.2-191.8c-15.6-88.4-25.7-149.9-25-154.6
						c2.2-16.9,18.5-29.3,35.9-27.4c6.5,0.9,49.7,21.9,144.1,70.4c74.3,38,140.1,70.8,146.1,73c14.3,4.8,37,4.8,51.3,0
						c6.2-2.2,71.8-35,146.1-73c94.4-48.4,137.7-69.5,144.1-70.4c17.4-2,33.7,10.4,35.9,27.4c0.4,4.8-9.6,67.1-25,154.6
						c-29.5,165.9-29.7,167.2-17.2,191.8c6.5,12.6,18.5,24.8,120,121c62,58.9,114.2,109.9,116,113.2c8,15.2,1.1,36-14.7,43.7
						c-5.4,2.6-57.1,10.9-162.2,25.4c-172.2,24.1-169.6,23.7-190.1,43.7c-9.4,9.1-17.6,24.1-64,115.5c-83.4,164.6-88.3,174-95,178.5
						C9112.8,3447.8,9095.2,3449.3,9086.2,3445.4z"/>
				</g>
			</g>
		</g>
		<g>
			<g>
				<g transform="translate(0.000000,511.000000) scale(0.100000,-0.100000)">
					<path class="st1" d="M9098.9,3395.6c-2.9-1.6-6.8-4.6-8.4-6.5c-1.8-2.2-28-58.7-58.3-125.7c-30.5-67-58.1-126.1-61.4-131.1
						c-7.5-11.1-22.1-22.2-34.6-26.4c-4.9-1.6-64.2-11.5-131.7-22c-78.8-12.3-124.7-20.2-128.9-22.4c-12.8-6.7-18.7-26-11.9-39.9
						c1.5-3.2,44.2-49.6,95.1-103.3c83-87.9,92.9-99.2,98.2-110.5c10.1-22.4,10.1-23.6-14.1-175.1c-12.8-80.7-21-136.8-20.5-141.2
						c1.8-15.5,15.2-26.8,29.4-25c5.3,0.8,40.8,20,118.1,64.3c60.9,34.7,114.8,64.7,119.8,66.6c11.7,4.4,30.4,4.4,42.1,0
						c5.1-2,58.9-31.9,119.8-66.6c77.4-44.2,112.8-63.5,118.1-64.3c14.3-1.8,27.6,9.5,29.4,25c0.4,4.4-7.9,61.3-20.5,141.2
						c-24.1,151.5-24.3,152.7-14.1,175.1c5.3,11.5,15.2,22.6,98.4,110.5c50.8,53.7,93.6,100.4,95.1,103.3
						c6.6,13.9,0.9,32.9-12.1,39.9c-4.4,2.4-46.8,9.9-132.9,23.2c-141.2,22-139,21.6-155.8,39.9c-7.7,8.3-14.4,22-52.5,105.5
						c-68.4,150.3-72.4,158.9-77.9,163C9120.6,3397.8,9106.2,3399.2,9098.9,3395.6z"/>
				</g>
			</g>
		</g>
	</g>
	<g id="Cara">
		<path class="st4" d="M706,375c-2.3,0.6-3.6,2.2-3.6,4c0.1,1.3,0.4,1.7,2.9,3.6c9.2,7.2,21.7,12.1,32.5,13c5.9,0.4,13.5-0.4,18.9-2
			c7.4-2.3,15.3-6.8,21.8-12.3c3.8-3.3,4.3-3.9,4.2-5.4c-0.1-1.5-0.9-2.4-2.6-3.1c-1.3-0.5-3.9-0.5-5.3,0.1c-0.5,0.2-2,1.4-3.5,2.6
			c-6.7,5.8-13.2,9.3-20.7,11.1c-3.5,0.9-10,1.2-13.8,0.7c-8.3-1.1-17.2-4.9-24-10.2c-1-0.8-2.1-1.5-2.6-1.7
			C709.3,374.8,707.1,374.7,706,375z"/>
		<path class="st4" d="M639.7,285.5c-1.7,0.6-2.8,2.1-2.7,3.9c0.1,1.3,0.3,1.7,2.3,3.7c7.2,7.3,16.8,12.4,25.1,13.3
			c4.6,0.5,10.4-0.2,14.5-1.8c5.6-2.2,11.7-6.6,16.6-12c2.9-3.2,3.3-3.8,3.2-5.4c-0.1-1.5-0.7-2.4-2-3.2c-1-0.6-3-0.5-4,0
			c-0.3,0.2-1.5,1.4-2.7,2.6c-5.1,5.7-10,9.1-15.8,10.9c-2.7,0.8-7.6,1.1-10.6,0.5c-6.4-1.2-13.3-5-18.5-10.5
			c-0.7-0.8-1.6-1.5-2-1.7C642.3,285.4,640.6,285.2,639.7,285.5z"/>
	</g>
	<path id="Calendario_1_" class="st5" d="M1091.9,4H950.5V-31c0-19.3-15.9-35.1-35.4-35.1h-35.4c-19.5,0-35.4,15.7-35.4,35.1V4
		H561.6V-31c0-19.3-15.9-35.1-35.4-35.1h-35.4c-19.5,0-35.4,15.7-35.4,35.1V4H314.1C255.5,4,208,51.1,208,109.2v701.4
		c0,58.1,47.5,105.2,106.1,105.2h777.9c58.6,0,106.1-47.1,106.1-105.2V109.2C1198,51.1,1150.5,4,1091.9,4z M1127.3,845.7H278.7V74.2
		h176.8v35.1c0,19.3,15.9,35.1,35.4,35.1h35.4c19.5,0,35.4-15.7,35.4-35.1V74.2h282.9v35.1c0,19.3,15.9,35.1,35.4,35.1h35.4
		c19.5,0,35.4-15.7,35.4-35.1V74.2h176.8V845.7z"/>
	<path id="Calendario_2_" class="st5" d="M1080.6-2.3H942.7v-34.9c0-19.2-15.5-34.9-34.5-34.9h-34.5c-19,0-34.5,15.7-34.5,34.9v34.9
		H563.5v-34.9c0-19.2-15.5-34.9-34.5-34.9h-34.5c-19,0-34.5,15.7-34.5,34.9v34.9H322.2c-57.1,0-103.4,46.9-103.4,104.7v697.9
		c0,57.8,46.3,104.7,103.4,104.7h758.4c57.1,0,103.4-46.9,103.4-104.7V102.4C1184.1,44.5,1137.8-2.3,1080.6-2.3z M1115.1,835.1
		H287.7V67.5h172.4v34.9c0,19.2,15.5,34.9,34.5,34.9H529c19,0,34.5-15.7,34.5-34.9V67.5h275.8v34.9c0,19.2,15.5,34.9,34.5,34.9h34.5
		c19,0,34.5-15.7,34.5-34.9V67.5h172.4V835.1z"/>
	<path id="Calendario" class="st6" d="M1087-0.1H947v-35c0-19.3-15.7-35-35-35h-35c-19.3,0-35,15.7-35,35v35H562v-35
		c0-19.3-15.7-35-35-35h-35c-19.3,0-35,15.7-35,35v35H317c-58,0-105,47-105,105v700c0,58,47,105,105,105h770c58,0,105-47,105-105
		v-700C1192,46.9,1145-0.1,1087-0.1z M1122,839.9H282v-770h175v35c0,19.3,15.7,35,35,35h35c19.3,0,35-15.7,35-35v-35h280v35
		c0,19.3,15.7,35,35,35h35c19.3,0,35-15.7,35-35v-35h175V839.9z"/>
</g>
</svg>
